# 3ds Max Wavefront OBJ Exporter v0.97b - (c)2007 guruware
# çÏê¨ÇµÇΩÉtÉ@ÉCÉã : 23.03.2019 19:20:40

#
# object Box001
#

v  -0.50 0.00 0.50
v  -0.50 0.00 -0.50
v  0.50 0.00 -0.50
v  0.50 0.00 0.50
v  -0.50 1.00 0.50
v  0.50 1.00 0.50
v  0.50 1.00 -0.50
v  -0.50 1.00 -0.50
# 8 vertices

vn 0.00 -1.00 -0.00
vn 0.00 1.00 -0.00
vn 0.00 0.00 1.00
vn 1.00 0.00 -0.00
vn 0.00 0.00 -1.00
vn -1.00 0.00 -0.00
# 6 vertex normals

o Box001
g Box001
f 1//1 2//1 3//1 
f 3//1 4//1 1//1 
f 5//2 6//2 7//2 
f 7//2 8//2 5//2 
f 1//3 4//3 6//3 
f 6//3 5//3 1//3 
f 4//4 3//4 7//4 
f 7//4 6//4 4//4 
f 3//5 2//5 8//5 
f 8//5 7//5 3//5 
f 2//6 1//6 5//6 
f 5//6 8//6 2//6 
# 12 faces

